<?xml version="1.0" encoding="UTF-8" standalone="no"?>
<svg width="33px" height="32px" viewBox="0 0 33 32" version="1.1" xmlns="http://www.w3.org/2000/svg" xmlns:xlink="http://www.w3.org/1999/xlink">
    <!-- Generator: Sketch 3.8.3 (29802) - http://www.bohemiancoding.com/sketch -->
    <title>Artboard 1</title>
    <desc>Created with Sketch.</desc>
    <defs></defs>
    <g id="Page-1" stroke="none" stroke-width="1" fill="none" fill-rule="evenodd">
        <g id="Artboard-1" fill="#363636">
            <g id="Group" transform="translate(1.000000, 2.000000)">
                <path d="M30.4978402,23.9782016 L28.8574514,23.9782016 L28.8574514,20.1294278 C28.8574514,19.8472752 28.6326847,19.6185286 28.3552916,19.6185286 L24.0367171,19.6185286 L24.0367171,17.9495913 C24.0367171,17.6674387 23.8119503,17.4386921 23.5345572,17.4386921 L21.3430648,17.4386921 L20.8388294,1.02288828 C20.8212873,0.449318801 20.3656609,0 19.801568,0 L17.6260778,0 C17.0619849,0 16.6064255,0.449318801 16.5888164,1.02288828 L16.084581,17.4386921 L13.7604514,17.4386921 L13.3399093,3.74768392 C13.3223672,3.17411444 12.8667408,2.72479564 12.3026479,2.72479564 L10.1271577,2.72479564 C9.56306479,2.72479564 9.1075054,3.17411444 9.08989633,3.74768392 L8.66935421,17.4386921 L6.39416847,17.4386921 C6.11677538,17.4386921 5.89200864,17.6674387 5.89200864,17.9495913 L5.89200864,19.6185286 L2.64470842,19.6185286 C2.36731533,19.6185286 2.1425486,19.8472752 2.1425486,20.1294278 L2.1425486,23.9782016 L0.502159827,23.9782016 C0.224766739,23.9782016 0,24.2069482 0,24.4891008 C0,24.7712534 0.224766739,25 0.502159827,25 L30.4978402,25 C30.7752333,25 31,24.7712534 31,24.4891008 C31,24.2069482 30.7752333,23.9782016 30.4978402,23.9782016 L30.4978402,23.9782016 Z M27.8531317,20.640327 L27.8531317,23.9782016 L24.0367171,23.9782016 L24.0367171,20.640327 L27.8531317,20.640327 L27.8531317,20.640327 Z M20.1039352,9.80926431 L17.3237106,9.80926431 L17.3592635,8.65122616 L20.0683823,8.65122616 L20.1039352,9.80926431 L20.1039352,9.80926431 Z M20.0369806,7.62942779 L17.3906652,7.62942779 L17.4429568,5.92643052 L19.984689,5.92643052 L20.0369806,7.62942779 L20.0369806,7.62942779 Z M17.2923089,10.8310627 L20.1353369,10.8310627 L20.1876285,12.5340599 L17.2400173,12.5340599 L17.2923089,10.8310627 L17.2923089,10.8310627 Z M19.9532873,4.90463215 L17.4743585,4.90463215 L17.5099114,3.74659401 L19.9177343,3.74659401 L19.9532873,4.90463215 L19.9532873,4.90463215 Z M17.2086156,13.5558583 L20.2190302,13.5558583 L20.2545832,14.7138965 L17.1730626,14.7138965 L17.2086156,13.5558583 L17.2086156,13.5558583 Z M17.6260778,1.02179837 L19.801568,1.02179837 C19.8197127,1.02179837 19.8344428,1.03623978 19.8350454,1.05476839 L19.8863326,2.72479564 L17.5413132,2.72479564 L17.5926004,1.05476839 C17.593203,1.03623978 17.6078661,1.02179837 17.6260778,1.02179837 L17.6260778,1.02179837 Z M17.1416609,15.7356948 L20.2859849,15.7356948 L20.3382765,17.4386921 L17.0893693,17.4386921 L17.1416609,15.7356948 L17.1416609,15.7356948 Z M12.5380605,10.3542234 L9.89174514,10.3542234 L9.94403672,8.65122616 L12.4857689,8.65122616 L12.5380605,10.3542234 L12.5380605,10.3542234 Z M9.86034341,11.3760218 L12.5694622,11.3760218 L12.6050151,12.5340599 L9.8247905,12.5340599 L9.86034341,11.3760218 L9.86034341,11.3760218 Z M12.4543672,7.62942779 L9.97543844,7.62942779 L10.0109914,6.47138965 L12.4188143,6.47138965 L12.4543672,7.62942779 L12.4543672,7.62942779 Z M9.79338877,13.5558583 L12.6364168,13.5558583 L12.6887084,15.2588556 L9.74109719,15.2588556 L9.79338877,13.5558583 L9.79338877,13.5558583 Z M10.1271577,3.74659401 L12.3026479,3.74659401 C12.3207927,3.74659401 12.3355227,3.76103542 12.3361253,3.77956403 L12.3874125,5.44959128 L10.0423931,5.44959128 L10.0936803,3.77956403 C10.0942829,3.76103542 10.108946,3.74659401 10.1271577,3.74659401 L10.1271577,3.74659401 Z M9.70969546,16.280654 L12.7201102,16.280654 L12.7556631,17.4386921 L9.67414255,17.4386921 L9.70969546,16.280654 L9.70969546,16.280654 Z M6.89632829,18.4604905 L23.0323974,18.4604905 L23.0323974,23.9782016 L21.8941685,23.9782016 L21.8941685,20.1294278 C21.8941685,19.8472752 21.6694017,19.6185286 21.3920086,19.6185286 C21.1146156,19.6185286 20.8898488,19.8472752 20.8898488,20.1294278 L20.8898488,23.9782016 L19.7516199,23.9782016 L19.7516199,20.1294278 C19.7516199,19.8472752 19.5268531,19.6185286 19.24946,19.6185286 C18.972067,19.6185286 18.7473002,19.8472752 18.7473002,20.1294278 L18.7473002,23.9782016 L17.6090713,23.9782016 L17.6090713,20.1294278 C17.6090713,19.8472752 17.3843045,19.6185286 17.1069114,19.6185286 C16.8295184,19.6185286 16.6047516,19.8472752 16.6047516,20.1294278 L16.6047516,23.9782016 L15.4665227,23.9782016 L15.4665227,20.1294278 C15.4665227,19.8472752 15.2417559,19.6185286 14.9643629,19.6185286 L6.89632829,19.6185286 L6.89632829,18.4604905 L6.89632829,18.4604905 Z M3.14686825,20.640327 L14.462203,20.640327 L14.462203,23.9782016 L3.14686825,23.9782016 L3.14686825,20.640327 L3.14686825,20.640327 Z" id="Shape"></path>
                <path d="M5.32289417,21.253406 L4.25161987,21.253406 C3.97422678,21.253406 3.74946004,21.4821526 3.74946004,21.7643052 C3.74946004,22.0464578 3.97422678,22.2752044 4.25161987,22.2752044 L5.32289417,22.2752044 C5.60028726,22.2752044 5.825054,22.0464578 5.825054,21.7643052 C5.825054,21.4821526 5.60028726,21.253406 5.32289417,21.253406 L5.32289417,21.253406 Z" id="Shape"></path>
                <path d="M8.00107991,21.253406 L6.92980562,21.253406 C6.65241253,21.253406 6.42764579,21.4821526 6.42764579,21.7643052 C6.42764579,22.0464578 6.65241253,22.2752044 6.92980562,22.2752044 L8.00107991,22.2752044 C8.278473,22.2752044 8.50323974,22.0464578 8.50323974,21.7643052 C8.50323974,21.4821526 8.278473,21.253406 8.00107991,21.253406 L8.00107991,21.253406 Z" id="Shape"></path>
                <path d="M10.6792657,21.253406 L9.60799136,21.253406 C9.33059827,21.253406 9.10583153,21.4821526 9.10583153,21.7643052 C9.10583153,22.0464578 9.33059827,22.2752044 9.60799136,22.2752044 L10.6792657,22.2752044 C10.9566587,22.2752044 11.1814255,22.0464578 11.1814255,21.7643052 C11.1814255,21.4821526 10.9566587,21.253406 10.6792657,21.253406 L10.6792657,21.253406 Z" id="Shape"></path>
                <path d="M13.3574514,21.253406 L12.2861771,21.253406 C12.008784,21.253406 11.7840173,21.4821526 11.7840173,21.7643052 C11.7840173,22.0464578 12.008784,22.2752044 12.2861771,22.2752044 L13.3574514,22.2752044 C13.6348445,22.2752044 13.8596112,22.0464578 13.8596112,21.7643052 C13.8596112,21.4821526 13.6348445,21.253406 13.3574514,21.253406 L13.3574514,21.253406 Z" id="Shape"></path>
                <path d="M25.1414687,22.2752044 L26.7483801,22.2752044 C27.0257732,22.2752044 27.25054,22.0464578 27.25054,21.7643052 C27.25054,21.4821526 27.0257732,21.253406 26.7483801,21.253406 L25.1414687,21.253406 C24.8640756,21.253406 24.6393089,21.4821526 24.6393089,21.7643052 C24.6393089,22.0464578 24.8640756,22.2752044 25.1414687,22.2752044 L25.1414687,22.2752044 Z" id="Shape"></path>
            </g>
        </g>
    </g>
</svg>