<?xml version="1.0" encoding="UTF-8" standalone="no"?>
<svg width="90px" height="91px" viewBox="0 0 90 91" version="1.1" xmlns="http://www.w3.org/2000/svg" xmlns:xlink="http://www.w3.org/1999/xlink">
    <!-- Generator: Sketch 3.8.2 (29753) - http://www.bohemiancoding.com/sketch -->
    <title>increased-revenue</title>
    <desc>Created with Sketch.</desc>
    <defs></defs>
    <g id="Page-1" stroke="none" stroke-width="1" fill="none" fill-rule="evenodd">
        <g id="Artboard-7" transform="translate(-11.000000, -10.000000)" fill="#F4721A">
            <g id="increased-revenue" transform="translate(11.000000, 10.000000)">
                <g id="Capa_1">
                    <g id="Layer_1_87_">
                        <g id="Group">
                            <path d="M78.8706383,18.0160138 C78.8706383,16.4070292 77.2429787,15.9379824 75.9753191,15.6534785 L75.9753191,20.3324134 C77.3885106,20.2362972 78.8706383,19.5711734 78.8706383,18.0160138 L78.8706383,18.0160138 Z" id="Shape"></path>
                            <path d="M74.5621277,8.04492295 C72.9612766,8.09105871 71.9234043,9.03876409 71.9234043,10.0537508 C71.9234043,11.2359796 72.8004255,11.9203267 74.5640426,12.2740342 L74.5621277,8.04492295 L74.5621277,8.04492295 L74.5621277,8.04492295 Z" id="Shape"></path>
                            <path d="M75.222766,28.5791803 C83.0738298,28.5791803 89.4580851,22.1682321 89.4580851,14.2905513 C89.4580851,6.41287048 83.0719149,0 75.222766,0 C67.3697872,0 60.983617,6.41094816 60.983617,14.2905513 C60.983617,22.1682321 67.3697872,28.5791803 75.222766,28.5791803 L75.222766,28.5791803 Z M68.9629787,10.595846 C68.9629787,7.38556606 71.622766,5.72660107 74.5640426,5.63432955 L74.5640426,4.37713012 C74.5640426,3.97151991 74.8685106,3.57167667 75.2668085,3.57167667 C75.6689362,3.57167667 75.9753191,3.97151991 75.9753191,4.37713012 L75.9753191,5.63432955 C77.8078723,5.68238763 81.5782979,6.83770393 81.5782979,9.15794813 C81.5782979,10.078741 80.892766,10.6208362 80.0942553,10.6208362 C78.5604255,10.6208362 78.5853191,8.09298103 75.977234,8.04492295 L75.977234,12.5354701 C79.0870213,13.1967494 81.8368085,14.1194645 81.8368085,17.7584225 C81.8368085,20.9225666 79.4834043,22.5315512 75.977234,22.7449291 L75.977234,24.2058948 C75.977234,24.6095827 75.6708511,25.0113483 75.2687234,25.0113483 C74.8704255,25.0113483 74.5659574,24.6095827 74.5659574,24.2058948 L74.5659574,22.7449291 C70.5887234,22.6468906 68.6125532,20.2612874 68.6125532,18.3927892 C68.6125532,17.4508508 69.1793617,16.904911 70.0697872,16.904911 C72.7065957,16.904911 70.6576596,20.1651713 74.5678723,20.3324134 L74.5678723,15.3920426 C71.0770213,14.7538312 68.9629787,13.2198172 68.9629787,10.595846 L68.9629787,10.595846 Z" id="Shape"></path>
                            <path d="M17.9138298,63.653891 L5.6412766,63.653891 C3.38170213,63.653891 1.55106383,65.4935544 1.55106383,67.7618958 L1.55106383,86.2411896 C1.55297872,88.5133757 3.38553191,90.3491944 5.6412766,90.3491944 L17.9138298,90.3491944 C20.1734043,90.3491944 22.0040426,88.5133757 22.0040426,86.2411896 L22.0040426,67.7618958 C22.0059574,65.4935544 20.1753191,63.653891 17.9138298,63.653891 L17.9138298,63.653891 Z" id="Shape"></path>
                            <path d="M49.6321277,49.2826021 L37.3595745,49.2826021 C35.1,49.2826021 33.2693617,51.1222655 33.2693617,53.3906069 L33.2693617,86.2450342 C33.2693617,88.5172204 35.1019149,90.3530391 37.3595745,90.3530391 L49.6321277,90.3530391 C51.8917021,90.3530391 53.7242553,88.5172204 53.7242553,86.2450342 L53.7242553,53.38484 C53.7242553,51.1222655 51.893617,49.2826021 49.6321277,49.2826021 L49.6321277,49.2826021 Z" id="Shape"></path>
                            <path d="M81.3561702,32.8544273 L69.0855319,32.8544273 C66.8240426,32.8544273 64.9934043,34.6940907 64.9934043,36.9605098 L64.9934043,86.2411896 C64.9934043,88.5133757 66.8259574,90.3491944 69.0855319,90.3491944 L81.3561702,90.3491944 C83.6176596,90.3491944 85.4482979,88.5133757 85.4482979,86.2411896 L85.4482979,36.9624321 C85.4502128,34.6940907 83.6176596,32.8544273 81.3561702,32.8544273 L81.3561702,32.8544273 Z" id="Shape"></path>
                            <path d="M56.8244681,21.0917311 L46.6659574,18.9598746 C45.8885106,18.7983994 45.0880851,19.1002042 44.6112766,19.7364932 C44.1344681,20.3747045 44.0693617,21.2301384 44.442766,21.935631 L46.6946809,26.1858878 L1.65255319,49.5094362 C0.649148936,50.0303858 0.254680851,51.2702844 0.773617021,52.2737371 C1.13744681,52.9792298 1.85170213,53.38484 2.59276596,53.38484 C2.9087234,53.38484 3.22851064,53.313714 3.52914894,53.1560835 L48.6134043,29.8094672 L50.6795745,33.7079388 C51.0357447,34.380752 51.7308511,34.7978961 52.4853191,34.7978961 C52.5197872,34.7978961 52.5523404,34.7959738 52.5887234,34.7940515 C53.3814894,34.7536827 54.0804255,34.2577233 54.3791489,33.5195511 L58.302766,23.8733329 C58.5325532,23.3081698 58.5019149,22.6718808 58.2146809,22.1336303 C57.9255319,21.6011468 57.4180851,21.2186044 56.8244681,21.0917311 L56.8244681,21.0917311 Z" id="Shape"></path>
                        </g>
                    </g>
                </g>
            </g>
        </g>
    </g>
</svg>