<?xml version="1.0" encoding="UTF-8" standalone="no"?>
<svg width="58px" height="93px" viewBox="0 0 58 93" version="1.1" xmlns="http://www.w3.org/2000/svg" xmlns:xlink="http://www.w3.org/1999/xlink">
    <!-- Generator: Sketch 3.8.2 (29753) - http://www.bohemiancoding.com/sketch -->
    <title>high-voltage</title>
    <desc>Created with Sketch.</desc>
    <defs></defs>
    <g id="Page-1" stroke="none" stroke-width="1" fill="none" fill-rule="evenodd">
        <g id="Artboard-7" transform="translate(-26.000000, -9.000000)" fill="#FFFFFF">
            <g id="high-voltage" transform="translate(26.000000, 9.000000)">
                <path d="M57.1577391,37.981418 C56.1585901,36.0712852 54.1968571,34.875 52.0551801,34.875 L41.2082795,34.875 L54.3292484,8.41214063 C55.2214037,6.60990234 55.1257578,4.46999414 54.0759938,2.75712305 C53.0260497,1.04298047 51.1714907,0 49.1731925,0 L20.3533168,0 C17.8710248,0 15.670087,1.60079883 14.8849255,3.9748418 L0.474987578,47.5685918 C-0.110416149,49.341041 0.185167702,51.2893184 1.26861491,52.8049277 C2.35224224,54.3205371 4.09152174,55.21875 5.94337888,55.21875 L19.3991988,55.21875 L14.6568882,86.3034551 C14.2487267,88.9826543 15.7291677,91.5922852 18.2283913,92.5913086 C18.9207888,92.8679473 19.6412857,93 20.3504348,93 C22.2051739,93 24.0008323,92.0959746 25.1040932,90.4811895 L56.8059565,43.9811895 C58.018913,42.2016563 58.1540062,39.8913691 57.1577391,37.981418 L57.1577391,37.981418 Z" id="Shape"></path>
            </g>
        </g>
    </g>
</svg>