<?xml version="1.0" encoding="utf-8"?>
<!-- Generator: Adobe Illustrator 16.0.4, SVG Export Plug-In . SVG Version: 6.00 Build 0)  -->
<!DOCTYPE svg PUBLIC "-//W3C//DTD SVG 1.1//EN" "http://www.w3.org/Graphics/SVG/1.1/DTD/svg11.dtd" [
	<!ENTITY ns_flows "http://ns.adobe.com/Flows/1.0/">
	<!ENTITY ns_extend "http://ns.adobe.com/Extensibility/1.0/">
	<!ENTITY ns_ai "http://ns.adobe.com/AdobeIllustrator/10.0/">
	<!ENTITY ns_graphs "http://ns.adobe.com/Graphs/1.0/">
]>
<svg version="1.1" id="Layer_1" xmlns:x="&ns_extend;" xmlns:i="&ns_ai;" xmlns:graph="&ns_graphs;"
	 xmlns="http://www.w3.org/2000/svg" xmlns:xlink="http://www.w3.org/1999/xlink" xmlns:a="http://ns.adobe.com/AdobeSVGViewerExtensions/3.0/"
	 x="0px" y="0px" width="284px" height="207px" viewBox="0 0 284 207" enable-background="new 0 0 284 207" xml:space="preserve">
<g>
	<g>
		<path fill="#F4721A" d="M142.001,140.211c32.187,0,58.374-26.189,58.374-58.376c0-32.188-26.188-58.375-58.374-58.375
			c-32.188,0-58.376,26.188-58.376,58.375C83.625,114.021,109.812,140.211,142.001,140.211z M142.001,29.292
			c28.976,0,52.544,23.569,52.544,52.542c0,28.974-23.568,52.541-52.544,52.541s-52.543-23.567-52.543-52.541
			C89.458,52.862,113.025,29.292,142.001,29.292z"/>
		<path fill="#F4721A" d="M116.645,84.762h43.666l-11.43,11.43c-1.143,1.143-1.143,2.975,0,4.117
			c0.568,0.571,1.309,0.857,2.072,0.857c0.76,0,1.498-0.286,2.068-0.857l16.406-16.403c1.145-1.142,1.145-2.976,0-4.119
			l-16.406-16.404c-1.141-1.141-2.975-1.141-4.117,0c-1.143,1.144-1.143,2.976,0,4.12l11.43,11.427h-43.689
			c-1.62,0-2.928,1.311-2.928,2.929C113.717,83.479,115.025,84.762,116.645,84.762z"/>
	</g>
</g>
<g>
	<path d="M106.328,170.694c0-0.729-0.273-1.324-0.819-1.786c-0.546-0.463-1.497-0.871-2.852-1.228
		c-1.466-0.367-2.576-0.846-3.33-1.435s-1.131-1.383-1.131-2.382c0-1.024,0.421-1.858,1.265-2.503
		c0.843-0.644,1.927-0.967,3.252-0.967c1.38,0,2.494,0.385,3.34,1.15c0.846,0.767,1.257,1.703,1.233,2.807l-0.028,0.054h-1.012
		c0-0.894-0.317-1.629-0.953-2.208c-0.634-0.575-1.495-0.862-2.581-0.862c-1.073,0-1.912,0.237-2.516,0.716
		c-0.604,0.479-0.906,1.075-0.906,1.786c0,0.675,0.279,1.236,0.837,1.688c0.558,0.45,1.521,0.848,2.889,1.191
		c1.441,0.368,2.538,0.865,3.289,1.49c0.751,0.626,1.127,1.451,1.127,2.476c0,1.066-0.437,1.916-1.312,2.548
		c-0.873,0.632-1.988,0.948-3.344,0.948c-1.337,0-2.504-0.336-3.5-1.009c-0.997-0.671-1.479-1.651-1.449-2.938l0.018-0.056h1.012
		c0,1.039,0.389,1.811,1.168,2.312c0.779,0.501,1.696,0.752,2.75,0.752c1.061,0,1.918-0.232,2.571-0.698
		C106.001,172.075,106.328,171.459,106.328,170.694z"/>
	<path d="M117.533,167.497h-6.449v5.548h7.387v0.938h-8.482v-13.396h8.436v0.939h-7.341v5.032h6.449V167.497z"/>
	<path d="M128.389,167.497h-6.449v5.548h7.389v0.938h-8.484v-13.396h8.437v0.939h-7.342v5.032h6.449V167.497z"/>
	<path d="M137.726,160.588l4.921,11.795h0.057l4.939-11.795h1.455v13.396h-1.095v-5.915l0.091-5.86l-0.054-0.019l-4.979,11.794
		h-0.763l-4.968-11.739l-0.057,0.011l0.102,5.813v5.915h-1.095v-13.396H137.726z"/>
	<path d="M162.392,168.38c0,1.73-0.474,3.129-1.423,4.195c-0.947,1.067-2.218,1.603-3.812,1.603c-1.57,0-2.824-0.535-3.759-1.603
		c-0.935-1.066-1.403-2.465-1.403-4.195v-2.18c0-1.724,0.467-3.122,1.398-4.194c0.932-1.073,2.184-1.611,3.754-1.611
		c1.594,0,2.867,0.538,3.817,1.611c0.952,1.072,1.428,2.471,1.428,4.194V168.38z M161.295,166.189c0-1.45-0.365-2.616-1.1-3.501
		c-0.73-0.884-1.748-1.327-3.049-1.327c-1.275,0-2.27,0.443-2.98,1.327c-0.711,0.885-1.067,2.051-1.067,3.501v2.202
		c0,1.462,0.358,2.636,1.072,3.52c0.714,0.886,1.71,1.327,2.985,1.327c1.305,0,2.323-0.441,3.049-1.322
		c0.727-0.882,1.09-2.057,1.09-3.524V166.189z"/>
	<path d="M166.356,167.93v6.054h-1.095v-13.385h4.536c1.436,0,2.534,0.314,3.302,0.941c0.766,0.63,1.15,1.549,1.15,2.756
		c0,0.713-0.205,1.348-0.618,1.909c-0.409,0.562-0.991,0.971-1.736,1.228c0.827,0.209,1.423,0.582,1.788,1.118
		c0.366,0.537,0.547,1.211,0.547,2.021v1.26c0,0.417,0.05,0.791,0.147,1.122c0.099,0.331,0.26,0.602,0.488,0.81v0.221h-1.123
		c-0.226-0.221-0.386-0.529-0.479-0.93c-0.092-0.397-0.138-0.812-0.138-1.241v-1.224c0-0.821-0.265-1.47-0.795-1.946
		c-0.532-0.475-1.273-0.713-2.223-0.713H166.356z M166.356,166.991h3.302c1.209,0,2.093-0.244,2.649-0.73
		c0.56-0.488,0.839-1.146,0.839-1.974c0-0.884-0.279-1.562-0.834-2.038s-1.394-0.713-2.515-0.713h-3.441V166.991z"/>
	<path d="M185.233,167.497h-6.449v5.548h7.39v0.938h-8.483v-13.396h8.437v0.939h-7.343v5.032h6.449V167.497z"/>
</g>
</svg>
