<?xml version="1.0" encoding="utf-8"?>
<!-- Generator: Adobe Illustrator 16.0.4, SVG Export Plug-In . SVG Version: 6.00 Build 0)  -->
<!DOCTYPE svg PUBLIC "-//W3C//DTD SVG 1.1//EN" "http://www.w3.org/Graphics/SVG/1.1/DTD/svg11.dtd" [
	<!ENTITY ns_flows "http://ns.adobe.com/Flows/1.0/">
	<!ENTITY ns_extend "http://ns.adobe.com/Extensibility/1.0/">
	<!ENTITY ns_ai "http://ns.adobe.com/AdobeIllustrator/10.0/">
	<!ENTITY ns_graphs "http://ns.adobe.com/Graphs/1.0/">
]>
<svg version="1.1" id="Layer_1" xmlns:x="&ns_extend;" xmlns:i="&ns_ai;" xmlns:graph="&ns_graphs;"
	 xmlns="http://www.w3.org/2000/svg" xmlns:xlink="http://www.w3.org/1999/xlink" xmlns:a="http://ns.adobe.com/AdobeSVGViewerExtensions/3.0/"
	 x="0px" y="0px" width="600px" height="399.082px" viewBox="0 0 600 399.082" enable-background="new 0 0 600 399.082"
	 xml:space="preserve">
<g>
	<g>
		<path fill="#F4721A" d="M300.001,257.883c43.221,0,78.389-35.168,78.389-78.39c0-43.223-35.168-78.389-78.389-78.389
			c-43.224,0-78.391,35.167-78.391,78.389C221.61,222.715,256.777,257.883,300.001,257.883z M300.001,108.937
			c38.91,0,70.559,31.65,70.559,70.556c0,38.907-31.648,70.555-70.559,70.555c-38.91,0-70.558-31.647-70.558-70.555
			C229.443,140.587,261.091,108.937,300.001,108.937z"/>
		<path fill="#F4721A" d="M265.952,183.424h58.636l-15.348,15.348c-1.534,1.534-1.534,3.995,0,5.529
			c0.764,0.767,1.758,1.151,2.781,1.151c1.022,0,2.012-0.384,2.779-1.151l22.029-22.027c1.537-1.533,1.537-3.996,0-5.531
			l-22.029-22.027c-1.531-1.533-3.994-1.533-5.529,0c-1.533,1.536-1.533,3.996,0,5.532l15.349,15.345h-58.668
			c-2.175,0-3.932,1.76-3.932,3.933C262.02,181.701,263.777,183.424,265.952,183.424z"/>
	</g>
</g>
<g>
	<path d="M252.098,298.817c0-0.979-0.366-1.777-1.099-2.398c-0.733-0.621-2.01-1.17-3.83-1.647
		c-1.968-0.494-3.459-1.137-4.472-1.927c-1.013-0.791-1.52-1.856-1.52-3.199c0-1.375,0.565-2.495,1.698-3.36
		c1.132-0.864,2.588-1.298,4.367-1.298c1.853,0,3.348,0.516,4.484,1.545c1.137,1.029,1.688,2.286,1.656,3.769l-0.037,0.072h-1.359
		c0-1.2-0.426-2.188-1.279-2.965c-0.852-0.772-2.007-1.159-3.465-1.159c-1.441,0-2.568,0.319-3.379,0.962
		c-0.812,0.643-1.217,1.443-1.217,2.398c0,0.906,0.375,1.66,1.125,2.267c0.75,0.604,2.042,1.138,3.879,1.6
		c1.936,0.494,3.407,1.161,4.416,2.001s1.514,1.948,1.514,3.324c0,1.433-0.586,2.572-1.761,3.421
		c-1.173,0.849-2.67,1.273-4.49,1.273c-1.795,0-3.363-0.451-4.701-1.354c-1.338-0.9-1.987-2.217-1.945-3.946l0.024-0.074h1.359
		c0,1.396,0.523,2.432,1.569,3.104c1.046,0.674,2.277,1.01,3.694,1.01c1.425,0,2.576-0.312,3.453-0.938
		C251.66,300.672,252.098,299.845,252.098,298.817z"/>
	<path d="M267.145,294.524h-8.66v7.45h9.92v1.26h-11.39v-17.987h11.329v1.261h-9.858v6.758h8.66V294.524z"/>
	<path d="M281.723,294.524h-8.66v7.45h9.922v1.26h-11.392v-17.987h11.33v1.261h-9.859v6.758h8.66V294.524z"/>
	<path d="M294.261,285.247l6.608,15.838h0.076l6.632-15.838h1.954v17.987h-1.47v-7.942l0.122-7.87l-0.072-0.024l-6.686,15.837
		h-1.024l-6.671-15.764l-0.076,0.014l0.137,7.808v7.942h-1.471v-17.987H294.261z"/>
	<path d="M327.383,295.71c0,2.323-0.636,4.201-1.91,5.634c-1.272,1.433-2.979,2.151-5.12,2.151c-2.108,0-3.792-0.719-5.047-2.151
		s-1.884-3.311-1.884-5.634v-2.927c0-2.314,0.625-4.192,1.877-5.633c1.252-1.441,2.933-2.163,5.041-2.163
		c2.141,0,3.851,0.722,5.126,2.163c1.278,1.44,1.917,3.318,1.917,5.633V295.71z M325.91,292.769c0-1.947-0.49-3.514-1.476-4.701
		c-0.981-1.188-2.349-1.782-4.095-1.782c-1.713,0-3.048,0.595-4.003,1.782s-1.433,2.754-1.433,4.701v2.957
		c0,1.963,0.48,3.539,1.439,4.727c0.958,1.188,2.296,1.781,4.009,1.781c1.753,0,3.12-0.592,4.095-1.774
		c0.976-1.185,1.463-2.762,1.463-4.733V292.769z"/>
	<path d="M332.707,295.105v8.129h-1.47v-17.974h6.091c1.928,0,3.403,0.422,4.435,1.265c1.028,0.846,1.545,2.079,1.545,3.7
		c0,0.957-0.276,1.81-0.83,2.564c-0.55,0.753-1.331,1.303-2.332,1.648c1.11,0.28,1.91,0.781,2.401,1.501
		c0.491,0.722,0.734,1.626,0.734,2.713v1.691c0,0.561,0.066,1.062,0.198,1.507c0.132,0.445,0.349,0.808,0.655,1.088v0.296h-1.509
		c-0.303-0.296-0.518-0.711-0.643-1.248c-0.122-0.534-0.185-1.091-0.185-1.667v-1.644c0-1.103-0.355-1.974-1.067-2.613
		c-0.715-0.637-1.71-0.957-2.984-0.957H332.707z M332.707,293.846h4.434c1.624,0,2.811-0.328,3.558-0.981
		c0.752-0.656,1.127-1.539,1.127-2.65c0-1.187-0.375-2.099-1.12-2.736c-0.744-0.639-1.871-0.958-3.377-0.958h-4.621V293.846z"/>
	<path d="M358.057,294.524h-8.661v7.45h9.923v1.26h-11.392v-17.987h11.329v1.261h-9.86v6.758h8.661V294.524z"/>
</g>
</svg>
