<?xml version="1.0" encoding="UTF-8" standalone="no"?>
<svg width="40px" height="40px" viewBox="0 0 40 40" version="1.1" xmlns="http://www.w3.org/2000/svg" xmlns:xlink="http://www.w3.org/1999/xlink">
    <!-- Generator: Sketch 3.8.2 (29753) - http://www.bohemiancoding.com/sketch -->
    <title>increased-revenue</title>
    <desc>Created with Sketch.</desc>
    <defs></defs>
    <g id="Page-1" stroke="none" stroke-width="1" fill="none" fill-rule="evenodd">
        <g id="Home" transform="translate(-62.000000, -2354.000000)" fill="#F4721A">
            <g id="Help-You" transform="translate(62.000000, 2278.000000)">
                <g id="Group-11" transform="translate(0.000000, 76.000000)">
                    <g id="increased-revenue">
                        <g id="Capa_1">
                            <g id="Layer_1_87_">
                                <g id="Group">
                                    <path d="M35.053617,7.97617021 C35.053617,7.26382979 34.3302128,7.05617021 33.7668085,6.93021277 L33.7668085,9.00170213 C34.3948936,8.95914894 35.053617,8.66468085 35.053617,7.97617021 L35.053617,7.97617021 Z" id="Shape"></path>
                                    <path d="M33.1387234,3.56170213 C32.427234,3.58212766 31.9659574,4.00170213 31.9659574,4.45106383 C31.9659574,4.97446809 32.3557447,5.27744681 33.1395745,5.43404255 L33.1387234,3.56170213 L33.1387234,3.56170213 L33.1387234,3.56170213 Z" id="Shape"></path>
                                    <path d="M33.4323404,12.652766 C36.9217021,12.652766 39.7591489,9.81446809 39.7591489,6.32680851 C39.7591489,2.83914894 36.9208511,0 33.4323404,0 C29.9421277,0 27.1038298,2.83829787 27.1038298,6.32680851 C27.1038298,9.81446809 29.9421277,12.652766 33.4323404,12.652766 L33.4323404,12.652766 Z M30.6502128,4.69106383 C30.6502128,3.26978723 31.8323404,2.53531915 33.1395745,2.49446809 L33.1395745,1.93787234 C33.1395745,1.75829787 33.2748936,1.5812766 33.4519149,1.5812766 C33.6306383,1.5812766 33.7668085,1.75829787 33.7668085,1.93787234 L33.7668085,2.49446809 C34.5812766,2.51574468 36.2570213,3.02723404 36.2570213,4.05446809 C36.2570213,4.46212766 35.9523404,4.70212766 35.5974468,4.70212766 C34.9157447,4.70212766 34.9268085,3.58297872 33.7676596,3.56170213 L33.7676596,5.54978723 C35.1497872,5.84255319 36.3719149,6.25106383 36.3719149,7.86212766 C36.3719149,9.26297872 35.3259574,9.97531915 33.7676596,10.0697872 L33.7676596,10.7165957 C33.7676596,10.8953191 33.6314894,11.0731915 33.452766,11.0731915 C33.2757447,11.0731915 33.1404255,10.8953191 33.1404255,10.7165957 L33.1404255,10.0697872 C31.372766,10.026383 30.4944681,8.97021277 30.4944681,8.14297872 C30.4944681,7.72595745 30.746383,7.48425532 31.1421277,7.48425532 C32.3140426,7.48425532 31.4034043,8.92765957 33.1412766,9.00170213 L33.1412766,6.81446809 C31.5897872,6.53191489 30.6502128,5.85276596 30.6502128,4.69106383 L30.6502128,4.69106383 Z" id="Shape"></path>
                                    <path d="M7.96170213,28.1812766 L2.50723404,28.1812766 C1.50297872,28.1812766 0.689361702,28.9957447 0.689361702,30 L0.689361702,38.1812766 C0.690212766,39.187234 1.50468085,40 2.50723404,40 L7.96170213,40 C8.96595745,40 9.77957447,39.187234 9.77957447,38.1812766 L9.77957447,30 C9.78042553,28.9957447 8.96680851,28.1812766 7.96170213,28.1812766 L7.96170213,28.1812766 Z" id="Shape"></path>
                                    <path d="M22.0587234,21.8187234 L16.6042553,21.8187234 C15.6,21.8187234 14.786383,22.6331915 14.786383,23.6374468 L14.786383,38.1829787 C14.786383,39.1889362 15.6008511,40.0017021 16.6042553,40.0017021 L22.0587234,40.0017021 C23.0629787,40.0017021 23.8774468,39.1889362 23.8774468,38.1829787 L23.8774468,23.6348936 C23.8774468,22.6331915 23.0638298,21.8187234 22.0587234,21.8187234 L22.0587234,21.8187234 Z" id="Shape"></path>
                                    <path d="M36.1582979,14.5455319 L30.7046809,14.5455319 C29.6995745,14.5455319 28.8859574,15.36 28.8859574,16.3634043 L28.8859574,38.1812766 C28.8859574,39.187234 29.7004255,40 30.7046809,40 L36.1582979,40 C37.1634043,40 37.9770213,39.187234 37.9770213,38.1812766 L37.9770213,16.3642553 C37.9778723,15.36 37.1634043,14.5455319 36.1582979,14.5455319 L36.1582979,14.5455319 Z" id="Shape"></path>
                                    <path d="M25.2553191,9.33787234 L20.7404255,8.39404255 C20.3948936,8.32255319 20.0391489,8.45617021 19.827234,8.73787234 C19.6153191,9.02042553 19.586383,9.39914894 19.7523404,9.71148936 L20.7531915,11.5931915 L0.734468085,21.9191489 C0.288510638,22.1497872 0.113191489,22.6987234 0.343829787,23.1429787 C0.505531915,23.4553191 0.822978723,23.6348936 1.15234043,23.6348936 C1.29276596,23.6348936 1.43489362,23.6034043 1.56851064,23.533617 L21.6059574,13.1974468 L22.5242553,14.9234043 C22.6825532,15.2212766 22.9914894,15.4059574 23.3268085,15.4059574 C23.3421277,15.4059574 23.3565957,15.4051064 23.372766,15.4042553 C23.7251064,15.386383 24.0357447,15.1668085 24.1685106,14.84 L25.9123404,10.5693617 C26.0144681,10.3191489 26.0008511,10.0374468 25.8731915,9.79914894 C25.7446809,9.56340426 25.5191489,9.39404255 25.2553191,9.33787234 L25.2553191,9.33787234 Z" id="Shape"></path>
                                </g>
                            </g>
                        </g>
                    </g>
                </g>
            </g>
        </g>
    </g>
</svg>