<?xml version="1.0" encoding="UTF-8" standalone="no"?>
<svg width="90px" height="90px" viewBox="0 0 90 90" version="1.1" xmlns="http://www.w3.org/2000/svg" xmlns:xlink="http://www.w3.org/1999/xlink">
    <!-- Generator: Sketch 3.8.2 (29753) - http://www.bohemiancoding.com/sketch -->
    <title>sun</title>
    <desc>Created with Sketch.</desc>
    <defs></defs>
    <g id="Page-1" stroke="none" stroke-width="1" fill="none" fill-rule="evenodd">
        <g id="Artboard-7" transform="translate(-10.000000, -10.000000)" fill="#F4721A">
            <g id="sun" transform="translate(10.000000, 10.000000)">
                <g id="Capa_1">
                    <g id="XMLID_467_">
                        <path d="M45.0329519,22.1447162 C31.8635011,22.1447162 21.1493822,32.3673799 21.1493822,44.9329913 C21.1493822,57.4986026 31.8635011,67.7214629 45.0329519,67.7214629 C58.2024027,67.7214629 68.9165217,57.4986026 68.9165217,44.9329913 C68.9165217,32.3675764 58.2024027,22.1447162 45.0329519,22.1447162 L45.0329519,22.1447162 Z" id="XMLID_922_"></path>
                        <path d="M80.6146682,44.9331878 L89.3607323,33.718559 C89.9586041,32.9521834 90.1297483,31.9566812 89.8204119,31.0480349 C89.5108696,30.1393886 88.7591533,29.4301965 87.803341,29.145262 L73.8191533,24.9775546 L73.9861785,10.9996507 C73.9977117,10.0442358 73.5229977,9.14286026 72.7129977,8.58124454 C71.9027918,8.01962882 70.8575973,7.86733624 69.9089931,8.17310044 L56.0281922,12.644214 L47.552746,1.24231441 C46.9734096,0.462969432 46.0342792,0 45.0329519,0 C44.0316247,0 43.0924943,0.462969432 42.5131579,1.24231441 L34.0375057,12.6444105 L20.1564989,8.17329694 C19.2076888,7.86772926 18.1624943,8.01982533 17.3524943,8.58144105 C16.5424943,9.14305677 16.0677803,10.0444323 16.0793135,10.9998472 L16.2465446,24.9777511 L2.26235698,29.1454585 C1.30654462,29.430393 0.554828375,30.1395852 0.245491991,31.0482314 C-0.0640503432,31.9568777 0.107299771,32.9521834 0.705171625,33.7187555 L9.4512357,44.9333843 L0.705171625,56.1480131 C0.107299771,56.9143886 -0.0638443936,57.9098908 0.245491991,58.8185371 C0.554828375,59.7271834 1.30675057,60.4363755 2.26235698,60.72131 L16.2465446,64.888821 L16.0793135,78.8667249 C16.0677803,79.8221397 16.5424943,80.7235153 17.3524943,81.285131 C18.1627002,81.8465502 19.2074828,81.9988428 20.1564989,81.6932751 L34.0375057,77.2221616 L42.5131579,88.6242576 C43.0924943,89.4036026 44.0316247,89.8665721 45.0329519,89.8665721 C46.0342792,89.8665721 46.9734096,89.4036026 47.552746,88.6242576 L56.0283982,77.2221616 L69.9091991,81.6932751 C70.8578032,81.9988428 71.9029977,81.8467467 72.7132037,81.285131 C73.5232037,80.7235153 73.9979176,79.8221397 73.9863844,78.8669214 L73.8193593,64.888821 L87.8035469,60.72131 C88.7593593,60.4363755 89.5110755,59.7271834 89.8206178,58.8185371 C90.1299542,57.9098908 89.9588101,56.9145852 89.3609382,56.1480131 L80.6146682,44.9331878 L80.6146682,44.9331878 Z M45.0329519,73.6166594 C28.4566819,73.6166594 14.9708924,60.749214 14.9708924,44.9329913 C14.9708924,29.1167686 28.4566819,16.2495197 45.0329519,16.2495197 C61.609222,16.2495197 75.0950114,29.1167686 75.0950114,44.9329913 C75.0950114,60.749214 61.609222,73.6166594 45.0329519,73.6166594 L45.0329519,73.6166594 Z" id="XMLID_1397_"></path>
                    </g>
                </g>
            </g>
        </g>
    </g>
</svg>