<?xml version="1.0" encoding="UTF-8" standalone="no"?>
<svg width="90px" height="90px" viewBox="0 0 90 90" version="1.1" xmlns="http://www.w3.org/2000/svg" xmlns:xlink="http://www.w3.org/1999/xlink">
    <!-- Generator: Sketch 3.8.2 (29753) - http://www.bohemiancoding.com/sketch -->
    <title>tool</title>
    <desc>Created with Sketch.</desc>
    <defs></defs>
    <g id="Page-1" stroke="none" stroke-width="1" fill="none" fill-rule="evenodd">
        <g id="Artboard-7" transform="translate(-10.000000, -10.000000)" fill="#F4721A">
            <g id="tool" transform="translate(10.000000, 10.000000)">
                <g id="Capa_1">
                    <g id="Group">
                        <path d="M87.8866875,18.896625 L87.8090625,18.6946875 L71.0870625,35.4166875 L83.4972188,47.827125 L83.5950938,47.70225 C89.9569688,39.5834062 91.6014375,28.5460312 87.8866875,18.896625 L87.8866875,18.896625 Z" id="Shape"></path>
                        <path d="M51.2777813,23.997375 C51.2777813,22.6665 51.7958438,21.4149375 52.7371875,20.4741563 L71.163,2.04834375 L70.9610625,1.97071875 C67.5644063,0.66290625 63.988875,0 60.3340313,0 C52.4491875,0 45.0365625,3.07040625 39.4613438,8.64534375 C31.1031563,17.0038125 28.8160313,29.167875 32.5965938,39.6109688 L3.6613125,68.54625 C1.30415625,70.9034063 0.00590625,74.0376562 0.00590625,77.3713125 C0.00590625,80.7049688 1.30415625,83.8389375 3.6613125,86.1960938 C6.01846875,88.55325 9.15271875,89.8512188 12.486375,89.8515 L12.486375,89.8515 C15.81975,89.8515 18.954,88.55325 21.310875,86.1960938 L50.232375,57.2745938 C53.4268125,58.4350313 56.8333125,59.0414063 60.3331875,59.0416875 L60.3345938,59.0416875 C66.80925,59.0416875 72.9514688,56.9885625 78.09525,53.105625 L78.2240625,53.0080313 L52.7369063,27.5203125 C51.796125,26.57925 51.2777813,25.32825 51.2777813,23.997375 L51.2777813,23.997375 Z M15.0885,80.7584063 C13.4344688,82.4124375 10.75275,82.4124375 9.09871875,80.7584063 C7.44496875,79.104375 7.44496875,76.4226563 9.099,74.7691875 C10.75275,73.1151563 13.4344688,73.1151563 15.0882188,74.7691875 C16.74225,76.4229375 16.74225,79.1046563 15.0885,80.7584063 L15.0885,80.7584063 Z M41.7895313,33.3469688 C41.6835,32.3710313 42.3885938,31.4949375 43.3645313,31.3894688 L50.3114063,30.6340313 C51.2867813,30.5277188 52.1634375,31.2328125 52.2689063,32.2081875 C52.3749375,33.184125 51.6698438,34.0607813 50.6953125,34.1668125 L43.747875,34.9216875 C42.7722188,35.0277188 41.8955625,34.3229063 41.7895313,33.3469688 L41.7895313,33.3469688 Z M62.319375,42.2589375 C62.4254063,43.2345938 61.7200313,44.1109688 60.744375,44.2161563 L53.7977813,44.9715938 C52.822125,45.0779063 51.9454688,44.373375 51.84,43.3977188 C51.7339688,42.4217813 52.4387813,41.5454063 53.413875,41.439375 L60.3610313,40.6845 C61.3366875,40.5779063 62.213625,41.2832813 62.319375,42.2589375 L62.319375,42.2589375 Z M57.294,37.2332812 C57.4000313,38.2095 56.6952188,39.0861562 55.7198438,39.191625 L48.7726875,39.9465 C47.7970313,40.0525312 46.9206563,39.3482812 46.8149063,38.372625 C46.708875,37.3969687 47.4136875,36.5203125 48.3890625,36.4142812 L55.3362188,35.6594062 C56.3115938,35.553375 57.18825,36.2579062 57.294,37.2332812 L57.294,37.2332812 Z" id="Shape"></path>
                    </g>
                </g>
            </g>
        </g>
    </g>
</svg>