<?xml version="1.0" encoding="utf-8"?>
<!-- Generator: Adobe Illustrator 16.0.4, SVG Export Plug-In . SVG Version: 6.00 Build 0)  -->
<!DOCTYPE svg PUBLIC "-//W3C//DTD SVG 1.1//EN" "http://www.w3.org/Graphics/SVG/1.1/DTD/svg11.dtd" [
	<!ENTITY ns_flows "http://ns.adobe.com/Flows/1.0/">
	<!ENTITY ns_extend "http://ns.adobe.com/Extensibility/1.0/">
	<!ENTITY ns_ai "http://ns.adobe.com/AdobeIllustrator/10.0/">
	<!ENTITY ns_graphs "http://ns.adobe.com/Graphs/1.0/">
]>
<svg version="1.1" id="Layer_1" xmlns:x="&ns_extend;" xmlns:i="&ns_ai;" xmlns:graph="&ns_graphs;"
	 xmlns="http://www.w3.org/2000/svg" xmlns:xlink="http://www.w3.org/1999/xlink" xmlns:a="http://ns.adobe.com/AdobeSVGViewerExtensions/3.0/"
	 x="0px" y="0px" width="100px" height="100px" viewBox="0 0 100 100" enable-background="new 0 0 100 100" xml:space="preserve">
<g>
	<g>
		<g>
			<path fill="#7A7C7F" d="M8.221,14.308c0-0.199,0.159-0.378,0.358-0.378h4.852c3.837,0,6.979,3.122,6.979,6.939
				c0,3.857-3.141,6.979-6.979,6.979H8.579c-0.199,0-0.358-0.179-0.358-0.378V14.308z M13.231,24.906
				c2.247,0,3.877-1.77,3.877-4.037c0-2.247-1.63-4.016-3.877-4.016h-1.909v8.053H13.231z"/>
			<path fill="#7A7C7F" d="M28.96,13.731c3.977,0,7.158,3.201,7.158,7.178s-3.181,7.138-7.158,7.138s-7.138-3.161-7.138-7.138
				S24.983,13.731,28.96,13.731z M28.96,24.866c2.187,0,3.977-1.789,3.977-3.957c0-2.187-1.79-3.997-3.977-3.997
				c-2.167,0-3.957,1.81-3.957,3.997C25.003,23.077,26.792,24.866,28.96,24.866z"/>
			<path fill="#7A7C7F" d="M44.648,13.731c3.977,0,7.158,3.201,7.158,7.178s-3.182,7.138-7.158,7.138s-7.138-3.161-7.138-7.138
				S40.672,13.731,44.648,13.731z M44.648,24.866c2.188,0,3.977-1.789,3.977-3.957c0-2.187-1.789-3.997-3.977-3.997
				c-2.167,0-3.957,1.81-3.957,3.997C40.692,23.077,42.481,24.866,44.648,24.866z"/>
			<path fill="#7A7C7F" d="M54.215,14.308c0-0.199,0.158-0.378,0.377-0.378h5.945c2.385,0,4.334,1.929,4.334,4.295
				c0,1.829-1.213,3.3-2.943,3.997l2.725,5.05c0.139,0.259,0,0.577-0.338,0.577H61.67c-0.158,0-0.279-0.1-0.318-0.179L58.707,22.4
				h-1.371v5.07c0,0.199-0.18,0.378-0.379,0.378h-2.365c-0.219,0-0.377-0.179-0.377-0.378V14.308z M60.277,19.875
				c0.816,0,1.512-0.755,1.512-1.59s-0.695-1.511-1.512-1.511h-2.941v3.102H60.277z"/>
			<path fill="#7A7C7F" d="M66.742,25.959l0.934-1.65c0.158-0.259,0.537-0.219,0.676-0.12c0.08,0.04,1.512,1.093,2.824,1.093
				c0.795,0,1.371-0.497,1.371-1.193c0-0.835-0.695-1.471-2.047-2.008c-1.711-0.676-3.857-2.008-3.857-4.395
				c0-1.968,1.529-3.957,4.592-3.957c2.068,0,3.658,1.054,4.256,1.491c0.238,0.14,0.199,0.497,0.119,0.636l-1.014,1.531
				c-0.141,0.219-0.498,0.397-0.676,0.258c-0.18-0.1-1.631-1.193-2.844-1.193c-0.717,0-1.254,0.477-1.254,1.014
				c0,0.736,0.598,1.292,2.168,1.929c1.551,0.617,4.016,1.829,4.016,4.534c0,2.048-1.77,4.115-4.691,4.115
				c-2.584,0-4.016-1.073-4.475-1.531C66.643,26.317,66.582,26.238,66.742,25.959z"/>
			<path fill="#7A7C7F" d="M85.234,20.273v-0.06l-0.398-0.417c-0.795-0.835-1.312-1.69-1.312-2.843c0-1.511,1.312-3.221,3.857-3.221
				c2.268,0,3.977,1.471,3.977,3.32c0,2.187-2.168,3.36-2.168,3.52L90.98,22.4c0.258-0.417,0.516-1.054,0.656-1.531
				c0.119-0.417,0.238-0.735,0.775-0.537l1.451,0.517c0.557,0.199,0.338,0.676,0.258,0.915c-0.477,1.392-1.252,2.446-1.252,2.485
				l1.689,1.57c0.258,0.239,0.457,0.418-0.039,0.915l-1.113,1.134c-0.24,0.219-0.578,0.258-0.896-0.06l-1.291-1.292
				c0,0-1.352,1.531-4.334,1.531c-2.545,0-4.375-1.709-4.375-3.777C82.51,21.406,85.234,20.273,85.234,20.273z M87.223,25.562
				c1.551,0,2.146-1.014,2.146-1.014l-2.604-2.763c0,0-1.412,0.477-1.412,2.087C85.354,24.826,86.168,25.562,87.223,25.562z
				 M88.812,17.231c0-0.676-0.617-1.272-1.471-1.272c-0.736,0-1.174,0.457-1.174,0.974c0,0.597,0.398,0.975,0.914,1.551l0.438,0.438
				C87.52,18.921,88.812,18.344,88.812,17.231z"/>
			<path fill="#7A7C7F" d="M7.486,30.394c-0.071-0.247,0.07-0.423,0.317-0.423h2.062c0.141,0,0.282,0.124,0.317,0.247l1.516,5.975
				h0.07l2.732-6.205c0.053-0.105,0.159-0.194,0.3-0.194h0.317c0.159,0,0.265,0.088,0.3,0.194l2.732,6.205h0.07l1.516-5.975
				c0.035-0.124,0.176-0.247,0.317-0.247h2.062c0.247,0,0.388,0.176,0.317,0.423l-3.332,11.846
				c-0.035,0.141-0.176,0.247-0.317,0.247h-0.282c-0.124,0-0.247-0.088-0.3-0.194l-3.226-7.209h-0.053l-3.208,7.209
				c-0.053,0.106-0.176,0.194-0.3,0.194h-0.282c-0.141,0-0.282-0.106-0.317-0.247L7.486,30.394z"/>
			<path fill="#7A7C7F" d="M24.318,30.306c0-0.177,0.159-0.335,0.335-0.335h2.115c0.176,0,0.335,0.158,0.335,0.335v11.669
				c0,0.177-0.159,0.335-0.335,0.335h-2.115c-0.176,0-0.335-0.158-0.335-0.335V30.306z"/>
			<path fill="#7A7C7F" d="M30.116,30.112c0-0.177,0.159-0.317,0.335-0.317h0.441l7.033,6.769h0.018v-6.258
				c0-0.177,0.141-0.335,0.335-0.335h2.115c0.176,0,0.335,0.158,0.335,0.335v11.863c0,0.177-0.159,0.317-0.335,0.317h-0.282
				c-0.053,0-0.194-0.053-0.229-0.088l-6.963-6.999h-0.018v6.575c0,0.177-0.141,0.335-0.335,0.335h-2.098
				c-0.176,0-0.334-0.158-0.334-0.335L30.116,30.112z"/>
			<path fill="#7A7C7F" d="M43.758,30.306c0-0.177,0.141-0.335,0.317-0.335h4.301c3.403,0,6.188,2.767,6.188,6.152
				c0,3.42-2.785,6.187-6.188,6.187h-4.301c-0.176,0-0.317-0.158-0.317-0.335V30.306z M48.2,39.701c1.992,0,3.438-1.568,3.438-3.578
				c0-1.992-1.447-3.561-3.438-3.561h-1.692v7.139H48.2z"/>
			<path fill="#7A7C7F" d="M62.143,29.794c3.525,0,6.346,2.838,6.346,6.363c0,3.526-2.82,6.328-6.346,6.328
				s-6.328-2.802-6.328-6.328C55.814,32.632,58.617,29.794,62.143,29.794z M62.143,39.666c1.938,0,3.525-1.586,3.525-3.508
				c0-1.939-1.588-3.543-3.525-3.543c-1.922,0-3.508,1.604-3.508,3.543C58.635,38.08,60.221,39.666,62.143,39.666z"/>
			<path fill="#7A7C7F" d="M69.438,30.394c-0.07-0.247,0.07-0.423,0.316-0.423h2.062c0.143,0,0.283,0.124,0.318,0.247l1.516,5.975
				h0.07l2.732-6.205c0.053-0.105,0.158-0.194,0.299-0.194h0.318c0.158,0,0.264,0.088,0.299,0.194l2.732,6.205h0.07l1.518-5.975
				c0.035-0.124,0.176-0.247,0.316-0.247h2.062c0.246,0,0.389,0.176,0.316,0.423l-3.33,11.846c-0.035,0.141-0.178,0.247-0.318,0.247
				h-0.281c-0.123,0-0.248-0.088-0.301-0.194l-3.225-7.209h-0.053l-3.209,7.209c-0.053,0.106-0.176,0.194-0.299,0.194h-0.283
				c-0.141,0-0.281-0.106-0.316-0.247L69.438,30.394z"/>
			<path fill="#7A7C7F" d="M85.617,40.635l0.828-1.463c0.143-0.229,0.477-0.194,0.6-0.106c0.07,0.036,1.34,0.97,2.504,0.97
				c0.705,0,1.215-0.441,1.215-1.058c0-0.74-0.615-1.304-1.814-1.78c-1.516-0.6-3.42-1.781-3.42-3.896
				c0-1.745,1.357-3.508,4.072-3.508c1.832,0,3.242,0.934,3.771,1.322c0.213,0.124,0.176,0.441,0.105,0.564l-0.898,1.357
				c-0.123,0.194-0.441,0.353-0.6,0.229c-0.158-0.088-1.445-1.057-2.52-1.057c-0.635,0-1.111,0.423-1.111,0.899
				c0,0.652,0.529,1.146,1.922,1.71c1.375,0.546,3.561,1.622,3.561,4.019c0,1.816-1.568,3.649-4.16,3.649
				c-2.291,0-3.561-0.952-3.967-1.357C85.529,40.953,85.477,40.882,85.617,40.635z"/>
		</g>
		<path fill="none" stroke="#F48022" stroke-width="6.1763" stroke-miterlimit="10" d="M28.634,56.105"/>
		<rect x="22.717" y="46.164" fill="#F48120" width="13.32" height="11.524"/>
		<rect x="37.361" y="46.164" fill="#F37920" width="13.323" height="11.524"/>
		<rect x="52.006" y="46.164" fill="#F26F21" width="13.32" height="11.524"/>
		<rect x="66.652" y="46.164" fill="#F16522" width="13.318" height="11.524"/>
		<rect x="81.297" y="46.164" fill="#F05A22" width="13.32" height="11.524"/>
		<g>
			<path fill="#F48120" d="M11.831,52.407h-0.732v1.292h0.822c0.354,0,0.653-0.287,0.653-0.66
				C12.573,52.678,12.183,52.407,11.831,52.407z"/>
			<path fill="#F48120" d="M12.437,50.58c0-0.361-0.289-0.616-0.634-0.616h-0.704v1.267h0.704
				C12.148,51.23,12.437,50.941,12.437,50.58z"/>
			<path fill="#F48120" d="M8.072,46.164v11.524h13.318V46.164H8.072z M12.101,54.994H9.859c-0.099,0-0.171-0.08-0.171-0.172v-5.991
				c0-0.087,0.073-0.168,0.171-0.168h2.108c1.068,0,1.944,0.731,1.944,1.682c0,0.696-0.625,1.2-1.049,1.428
				c0.479,0.197,1.213,0.643,1.213,1.477C14.076,54.262,13.179,54.994,12.101,54.994z M19.805,48.922l-2.026,3.015v2.885
				c0,0.092-0.081,0.172-0.171,0.172H16.53c-0.099,0-0.172-0.08-0.172-0.172v-2.875l-1.999-3.025c-0.073-0.115,0-0.259,0.145-0.259
				h1.176c0.074,0,0.118,0.042,0.146,0.081l1.257,1.853l1.256-1.853c0.027-0.039,0.064-0.081,0.145-0.081h1.179
				C19.805,48.663,19.878,48.808,19.805,48.922z"/>
		</g>
	</g>
	
		<image overflow="visible" width="1614" height="539" id="bangatext_x5F_orange_1_" xlink:href="318F7980000C8C2.png"  transform="matrix(0.0596 0 0 0.0596 2 56.7383)">
	</image>
</g>
</svg>
