<?xml version="1.0" encoding="utf-8"?>
<!-- Generator: Adobe Illustrator 16.0.4, SVG Export Plug-In . SVG Version: 6.00 Build 0)  -->
<!DOCTYPE svg PUBLIC "-//W3C//DTD SVG 1.1//EN" "http://www.w3.org/Graphics/SVG/1.1/DTD/svg11.dtd">
<svg version="1.1" id="Layer_1" xmlns="http://www.w3.org/2000/svg" xmlns:xlink="http://www.w3.org/1999/xlink" x="0px" y="0px"
	 width="100px" height="100px" viewBox="0 0 100 100" enable-background="new 0 0 100 100" xml:space="preserve">
<g>
	<g>
		<g>
			<path fill="#7A7C7F" d="M7.077,14.308c0-0.199,0.159-0.378,0.358-0.378h4.852c3.837,0,6.979,3.122,6.979,6.939
				c0,3.857-3.141,6.979-6.979,6.979H7.435c-0.199,0-0.358-0.179-0.358-0.378V14.308z M12.086,24.906
				c2.247,0,3.877-1.771,3.877-4.037c0-2.247-1.63-4.016-3.877-4.016h-1.909v8.053H12.086z"/>
			<path fill="#7A7C7F" d="M27.815,13.731c3.977,0,7.158,3.201,7.158,7.178c0,3.977-3.181,7.138-7.158,7.138
				s-7.138-3.161-7.138-7.138C20.677,16.932,23.838,13.731,27.815,13.731z M27.815,24.866c2.187,0,3.977-1.789,3.977-3.957
				c0-2.187-1.79-3.997-3.977-3.997c-2.167,0-3.957,1.81-3.957,3.997C23.858,23.077,25.647,24.866,27.815,24.866z"/>
			<path fill="#7A7C7F" d="M43.503,13.731c3.977,0,7.159,3.201,7.159,7.178c0,3.977-3.183,7.138-7.159,7.138
				s-7.138-3.161-7.138-7.138C36.365,16.932,39.527,13.731,43.503,13.731z M43.503,24.866c2.188,0,3.977-1.789,3.977-3.957
				c0-2.187-1.789-3.997-3.977-3.997c-2.167,0-3.957,1.81-3.957,3.997C39.547,23.077,41.336,24.866,43.503,24.866z"/>
			<path fill="#7A7C7F" d="M53.07,14.308c0-0.199,0.158-0.378,0.377-0.378h5.945c2.385,0,4.334,1.929,4.334,4.295
				c0,1.829-1.213,3.3-2.943,3.997l2.725,5.05c0.143,0.259,0,0.577-0.338,0.577h-2.645c-0.158,0-0.279-0.1-0.318-0.179l-2.645-5.27
				h-1.371v5.07c0,0.199-0.181,0.378-0.379,0.378h-2.365c-0.219,0-0.377-0.179-0.377-0.378V14.308z M59.133,19.875
				c0.812,0,1.512-0.755,1.512-1.59s-0.694-1.511-1.512-1.511h-2.941v3.102L59.133,19.875L59.133,19.875z"/>
			<path fill="#7A7C7F" d="M65.598,25.959l0.935-1.65c0.157-0.259,0.536-0.219,0.676-0.12c0.08,0.04,1.513,1.093,2.824,1.093
				c0.795,0,1.37-0.497,1.37-1.193c0-0.835-0.694-1.471-2.047-2.008c-1.711-0.676-3.856-2.008-3.856-4.395
				c0-1.968,1.528-3.957,4.592-3.957c2.068,0,3.658,1.054,4.259,1.491c0.235,0.14,0.196,0.497,0.116,0.636l-1.014,1.531
				c-0.142,0.219-0.498,0.397-0.677,0.258c-0.18-0.1-1.631-1.193-2.844-1.193c-0.717,0-1.254,0.477-1.254,1.014
				c0,0.736,0.598,1.292,2.168,1.929c1.551,0.617,4.016,1.829,4.016,4.534c0,2.048-1.77,4.115-4.69,4.115
				c-2.584,0-4.017-1.073-4.476-1.531C65.498,26.317,65.438,26.238,65.598,25.959z"/>
			<path fill="#7A7C7F" d="M84.09,20.273v-0.06l-0.398-0.417c-0.795-0.835-1.312-1.69-1.312-2.843c0-1.511,1.312-3.221,3.856-3.221
				c2.269,0,3.978,1.471,3.978,3.32c0,2.188-2.168,3.36-2.168,3.52l1.791,1.828c0.259-0.417,0.517-1.054,0.656-1.531
				c0.116-0.417,0.235-0.735,0.772-0.537l1.447,0.517c0.561,0.199,0.342,0.676,0.262,0.915c-0.479,1.392-1.252,2.446-1.252,2.485
				l1.688,1.57c0.258,0.239,0.457,0.418-0.039,0.915l-1.113,1.134c-0.238,0.219-0.576,0.258-0.896-0.06l-1.291-1.292
				c0,0-1.352,1.531-4.334,1.531c-2.545,0-4.375-1.709-4.375-3.777C81.365,21.406,84.09,20.273,84.09,20.273z M86.078,25.562
				c1.551,0,2.146-1.014,2.146-1.014l-2.604-2.763c0,0-1.412,0.477-1.412,2.087C84.209,24.826,85.023,25.562,86.078,25.562z
				 M87.668,17.231c0-0.676-0.617-1.272-1.475-1.272c-0.732,0-1.174,0.457-1.174,0.974c0,0.597,0.396,0.975,0.914,1.551l0.438,0.438
				C86.375,18.921,87.668,18.344,87.668,17.231z"/>
			<path fill="#7A7C7F" d="M6.341,30.394c-0.071-0.247,0.07-0.423,0.317-0.423H8.72c0.141,0,0.282,0.124,0.317,0.247l1.516,5.975
				h0.07l2.732-6.205c0.053-0.105,0.159-0.194,0.3-0.194h0.317c0.159,0,0.265,0.088,0.3,0.194l2.732,6.205h0.07l1.516-5.975
				c0.035-0.124,0.176-0.247,0.317-0.247h2.062c0.247,0,0.388,0.176,0.317,0.423L17.955,42.24c-0.035,0.141-0.176,0.247-0.317,0.247
				h-0.282c-0.124,0-0.247-0.088-0.3-0.194l-3.226-7.209h-0.053l-3.208,7.209c-0.053,0.106-0.176,0.194-0.3,0.194H9.986
				c-0.141,0-0.282-0.106-0.317-0.247L6.341,30.394z"/>
			<path fill="#7A7C7F" d="M23.173,30.306c0-0.177,0.159-0.335,0.335-0.335h2.115c0.176,0,0.335,0.158,0.335,0.335v11.669
				c0,0.177-0.159,0.335-0.335,0.335h-2.115c-0.176,0-0.335-0.158-0.335-0.335V30.306z"/>
			<path fill="#7A7C7F" d="M28.972,30.112c0-0.177,0.159-0.317,0.335-0.317h0.441l7.033,6.769h0.018v-6.258
				c0-0.177,0.141-0.335,0.335-0.335h2.115c0.176,0,0.335,0.158,0.335,0.335v11.863c0,0.177-0.159,0.317-0.335,0.317h-0.282
				c-0.053,0-0.194-0.053-0.229-0.088l-6.963-6.999h-0.018v6.575c0,0.177-0.141,0.335-0.335,0.335h-2.098
				c-0.176,0-0.334-0.158-0.334-0.335L28.972,30.112z"/>
			<path fill="#7A7C7F" d="M42.613,30.306c0-0.177,0.141-0.335,0.317-0.335h4.301c3.403,0,6.188,2.767,6.188,6.152
				c0,3.42-2.785,6.187-6.188,6.187H42.93c-0.176,0-0.317-0.158-0.317-0.335V30.306z M47.056,39.701
				c1.992,0,3.438-1.568,3.438-3.578c0-1.992-1.45-3.561-3.438-3.561h-1.692v7.139H47.056z"/>
			<path fill="#7A7C7F" d="M60.998,29.794c3.525,0,6.346,2.838,6.346,6.363c0,3.526-2.816,6.328-6.346,6.328
				c-3.523,0-6.328-2.802-6.328-6.328C54.67,32.632,57.473,29.794,60.998,29.794z M60.998,39.666c1.938,0,3.525-1.586,3.525-3.508
				c0-1.939-1.588-3.543-3.525-3.543c-1.922,0-3.508,1.604-3.508,3.543C57.49,38.08,59.076,39.666,60.998,39.666z"/>
			<path fill="#7A7C7F" d="M68.293,30.394c-0.066-0.247,0.07-0.423,0.316-0.423h2.062c0.144,0,0.283,0.124,0.315,0.247l1.519,5.975
				h0.07l2.729-6.205c0.053-0.105,0.154-0.194,0.299-0.194h0.314c0.158,0,0.268,0.088,0.303,0.194l2.729,6.205h0.07l1.518-5.975
				c0.035-0.124,0.178-0.247,0.316-0.247h2.062c0.246,0,0.39,0.176,0.313,0.423l-3.33,11.846c-0.032,0.141-0.178,0.247-0.315,0.247
				h-0.281c-0.122,0-0.247-0.088-0.301-0.194l-3.228-7.209h-0.053l-3.209,7.209c-0.057,0.106-0.178,0.194-0.301,0.194h-0.279
				c-0.143,0-0.281-0.106-0.313-0.247L68.293,30.394z"/>
			<path fill="#7A7C7F" d="M84.473,40.635l0.828-1.463c0.143-0.229,0.477-0.194,0.6-0.106c0.07,0.036,1.341,0.97,2.504,0.97
				c0.705,0,1.216-0.441,1.216-1.058c0-0.74-0.615-1.304-1.812-1.78c-1.52-0.6-3.424-1.781-3.424-3.896
				c0-1.745,1.357-3.508,4.072-3.508c1.832,0,3.242,0.934,3.771,1.322c0.213,0.124,0.176,0.441,0.104,0.564l-0.897,1.357
				c-0.123,0.194-0.441,0.353-0.601,0.229c-0.158-0.088-1.444-1.057-2.521-1.057c-0.635,0-1.109,0.423-1.109,0.899
				c0,0.652,0.527,1.146,1.922,1.71c1.375,0.546,3.562,1.622,3.562,4.019c0,1.816-1.567,3.649-4.16,3.649
				c-2.291,0-3.562-0.952-3.967-1.357C84.385,40.953,84.332,40.882,84.473,40.635z"/>
		</g>
		<path fill="none" stroke="#F48022" stroke-width="6.1763" stroke-miterlimit="10" d="M27.489,56.105"/>
		<rect x="21.572" y="46.164" fill="#F48120" width="13.32" height="11.523"/>
		<rect x="36.216" y="46.164" fill="#F37920" width="13.323" height="11.523"/>
		<rect x="50.861" y="46.164" fill="#F26F21" width="13.32" height="11.523"/>
		<rect x="65.508" y="46.164" fill="#F16522" width="13.318" height="11.523"/>
		<rect x="80.152" y="46.164" fill="#F05A22" width="13.32" height="11.523"/>
		<g>
			<path fill="#F48120" d="M10.687,52.407H9.955v1.292h0.822c0.354,0,0.653-0.287,0.653-0.66
				C11.429,52.678,11.039,52.407,10.687,52.407z"/>
			<path fill="#F48120" d="M11.292,50.58c0-0.361-0.289-0.616-0.634-0.616H9.955v1.267h0.704
				C11.003,51.23,11.292,50.941,11.292,50.58z"/>
			<path fill="#F48120" d="M6.927,46.164v11.523h13.318V46.164H6.927z M10.957,54.994H8.714c-0.099,0-0.171-0.08-0.171-0.172v-5.991
				c0-0.087,0.073-0.168,0.171-0.168h2.108c1.068,0,1.944,0.731,1.944,1.682c0,0.696-0.625,1.2-1.049,1.428
				c0.479,0.197,1.213,0.643,1.213,1.477C12.932,54.262,12.035,54.994,10.957,54.994z M18.661,48.922l-2.026,3.016v2.888
				c0,0.092-0.081,0.172-0.171,0.172h-1.078c-0.099,0-0.172-0.08-0.172-0.172V51.95l-1.999-3.025c-0.073-0.115,0-0.259,0.145-0.259
				h1.176c0.074,0,0.118,0.042,0.146,0.081l1.257,1.854l1.256-1.854c0.027-0.039,0.064-0.081,0.145-0.081h1.179
				C18.661,48.663,18.733,48.808,18.661,48.922z"/>
		</g>
	</g>
</g>
<g>
	<path fill="#F48120" d="M15.866,72.738c1.64-0.66,2.91-2.195,2.91-4.284c0-2.91-2.222-4.787-5.476-4.787H7.664
		c-0.185,0-0.344,0.157-0.344,0.343v17.83c0.001,0.185,0.16,0.343,0.344,0.343h5.874c3.438,0,5.82-2.062,5.82-5.027
		C19.358,74.617,17.745,73.241,15.866,72.738z M13.645,81.072H8.538v-7.493l0.003-0.206H8.538l0.026-1.391v-7.153h4.735
		c2.539,0,4.126,1.376,4.126,3.678c0,1.994-1.242,3.459-3.374,3.685c0.002,0.408,0.006,0.815,0.012,1.225
		c2.231,0.201,3.943,1.547,3.943,3.716C18.009,79.432,16.21,81.072,13.645,81.072z"/>
	<polygon fill="#F48120" points="8.333,71.673 8.336,71.673 8.355,70.516 	"/>
	<path fill="#F48120" d="M21.154,81.866l8.148-18.413c0.053-0.105,0.185-0.186,0.317-0.186h0.079c0.131,0,0.264,0.027,0.344,0.186
		l8.069,18.413c0.054,0.158,0.054,0.316-0.238,0.316h-0.688c-0.186,0-0.318-0.131-0.371-0.238l-2.143-4.868H24.567l-2.118,4.868
		c-0.053,0.107-0.185,0.238-0.369,0.238h-0.742C21.154,82.183,21.076,82.077,21.154,81.866z M34.223,76.047l-4.524-10.661h-0.051
		l-4.604,10.661H34.223z"/>
	<path fill="#F48120" d="M41.072,63.744c0-0.214,0.185-0.344,0.397-0.344h0.45l12.698,16.534c0.026,0,0.026,0,0.026,0V64.009
		c0-0.185,0.158-0.345,0.343-0.345h0.528c0.186,0,0.344,0.16,0.344,0.345v18.095c0,0.238-0.211,0.345-0.423,0.345H55.09
		c-0.026,0-0.237-0.08-12.803-16.693H42.26v16.084c0,0.186-0.158,0.344-0.343,0.344h-0.503c-0.185,0-0.344-0.158-0.344-0.344V63.744
		H41.072z"/>
	<path fill="#F48120" d="M67.657,63.528c2.674,0,4.684,0.899,6.402,2.46c0.132,0.133,0.158,0.344,0.024,0.477
		c-0.13,0.159-0.29,0.317-0.422,0.449c-0.161,0.186-0.292,0.159-0.45,0c-1.481-1.377-3.414-2.222-5.582-2.222
		c-4.604,0-8.229,3.757-8.229,8.334c0,4.575,3.625,8.333,8.229,8.333c3.227,0,5.237-1.244,5.501-1.455v-4.974h-4.523
		c-0.292,0-0.345-0.105-0.345-0.344v-0.53c0-0.211,0.053-0.316,0.345-0.316h5.426c0.185,0,0.344,0.158,0.344,0.316v6.139
		c0,0.395-0.159,0.528-0.371,0.686c-0.476,0.319-2.883,1.693-6.349,1.693c-5.317,0-9.576-4.18-9.576-9.496
		C58.081,67.787,62.34,63.528,67.657,63.528z"/>
	<path fill="#F48120" d="M76.81,82.514l8.148-18.412c0.052-0.106,0.185-0.186,0.317-0.186h0.078c0.132,0,0.265,0.026,0.345,0.186
		l8.068,18.412c0.054,0.159,0.054,0.317-0.237,0.317h-0.688c-0.184,0-0.316-0.132-0.368-0.238l-2.144-4.868H80.224l-2.118,4.868
		c-0.052,0.106-0.186,0.238-0.369,0.238h-0.741C76.81,82.831,76.73,82.726,76.81,82.514z M89.878,76.695l-4.524-10.661h-0.053
		l-4.603,10.661H89.878z"/>
</g>
</svg>
