<?xml version="1.0" encoding="utf-8"?>
<!-- Generator: Adobe Illustrator 16.0.4, SVG Export Plug-In . SVG Version: 6.00 Build 0)  -->
<!DOCTYPE svg PUBLIC "-//W3C//DTD SVG 1.1//EN" "http://www.w3.org/Graphics/SVG/1.1/DTD/svg11.dtd">
<svg version="1.1" id="Layer_1" xmlns="http://www.w3.org/2000/svg" xmlns:xlink="http://www.w3.org/1999/xlink" x="0px" y="0px"
	 width="100px" height="100px" viewBox="0 0 100 100" enable-background="new 0 0 100 100" xml:space="preserve">
<g>
	<g>
		<g>
			<path fill="#7A7C7F" d="M7.077,14.308c0-0.199,0.159-0.378,0.358-0.378h4.852c3.837,0,6.979,3.122,6.979,6.939
				c0,3.857-3.141,6.979-6.979,6.979H7.435c-0.199,0-0.358-0.179-0.358-0.378V14.308z M12.086,24.906
				c2.247,0,3.877-1.771,3.877-4.037c0-2.247-1.63-4.016-3.877-4.016h-1.909v8.053H12.086z"/>
			<path fill="#7A7C7F" d="M27.815,13.731c3.977,0,7.158,3.201,7.158,7.178c0,3.977-3.181,7.138-7.158,7.138
				s-7.138-3.161-7.138-7.138C20.677,16.932,23.838,13.731,27.815,13.731z M27.815,24.866c2.187,0,3.977-1.789,3.977-3.957
				c0-2.187-1.79-3.997-3.977-3.997c-2.167,0-3.957,1.81-3.957,3.997C23.858,23.077,25.647,24.866,27.815,24.866z"/>
			<path fill="#7A7C7F" d="M43.503,13.731c3.977,0,7.159,3.201,7.159,7.178c0,3.977-3.183,7.138-7.159,7.138
				s-7.138-3.161-7.138-7.138C36.365,16.932,39.527,13.731,43.503,13.731z M43.503,24.866c2.188,0,3.977-1.789,3.977-3.957
				c0-2.187-1.789-3.997-3.977-3.997c-2.167,0-3.957,1.81-3.957,3.997C39.547,23.077,41.336,24.866,43.503,24.866z"/>
			<path fill="#7A7C7F" d="M53.07,14.308c0-0.199,0.158-0.378,0.377-0.378h5.945c2.385,0,4.334,1.929,4.334,4.295
				c0,1.829-1.213,3.3-2.943,3.997l2.725,5.05c0.142,0.259,0,0.577-0.338,0.577h-2.645c-0.158,0-0.279-0.1-0.318-0.179l-2.645-5.27
				h-1.371v5.07c0,0.199-0.18,0.378-0.379,0.378h-2.365c-0.219,0-0.377-0.179-0.377-0.378V14.308z M59.133,19.875
				c0.813,0,1.512-0.755,1.512-1.59s-0.695-1.511-1.512-1.511h-2.941v3.102L59.133,19.875L59.133,19.875z"/>
			<path fill="#7A7C7F" d="M65.598,25.959l0.934-1.65c0.158-0.259,0.537-0.219,0.676-0.12c0.08,0.04,1.512,1.093,2.824,1.093
				c0.795,0,1.371-0.497,1.371-1.193c0-0.835-0.695-1.471-2.047-2.008c-1.711-0.676-3.857-2.008-3.857-4.395
				c0-1.968,1.529-3.957,4.592-3.957c2.068,0,3.658,1.054,4.259,1.491c0.235,0.14,0.196,0.497,0.116,0.636l-1.014,1.531
				c-0.141,0.219-0.498,0.397-0.676,0.258c-0.18-0.1-1.631-1.193-2.844-1.193c-0.717,0-1.254,0.477-1.254,1.014
				c0,0.736,0.598,1.292,2.168,1.929c1.551,0.617,4.016,1.829,4.016,4.534c0,2.048-1.77,4.115-4.691,4.115
				c-2.584,0-4.016-1.073-4.475-1.531C65.498,26.317,65.438,26.238,65.598,25.959z"/>
			<path fill="#7A7C7F" d="M84.09,20.273v-0.06l-0.398-0.417c-0.795-0.835-1.312-1.69-1.312-2.843c0-1.511,1.312-3.221,3.857-3.221
				c2.268,0,3.977,1.471,3.977,3.32c0,2.188-2.168,3.36-2.168,3.52l1.791,1.828c0.258-0.417,0.516-1.054,0.656-1.531
				c0.116-0.417,0.235-0.735,0.772-0.537l1.448,0.517c0.56,0.199,0.341,0.676,0.261,0.915c-0.479,1.392-1.252,2.446-1.252,2.485
				l1.688,1.57c0.258,0.239,0.457,0.418-0.039,0.915l-1.113,1.134c-0.238,0.219-0.576,0.258-0.896-0.06l-1.291-1.292
				c0,0-1.352,1.531-4.334,1.531c-2.545,0-4.375-1.709-4.375-3.777C81.365,21.406,84.09,20.273,84.09,20.273z M86.078,25.562
				c1.551,0,2.146-1.014,2.146-1.014l-2.604-2.763c0,0-1.412,0.477-1.412,2.087C84.209,24.826,85.023,25.562,86.078,25.562z
				 M87.668,17.231c0-0.676-0.617-1.272-1.474-1.272c-0.733,0-1.174,0.457-1.174,0.974c0,0.597,0.396,0.975,0.914,1.551l0.438,0.438
				C86.375,18.921,87.668,18.344,87.668,17.231z"/>
			<path fill="#7A7C7F" d="M6.341,30.394c-0.071-0.247,0.07-0.423,0.317-0.423h2.062c0.141,0,0.282,0.124,0.317,0.247l1.516,5.975
				h0.07l2.732-6.205c0.053-0.105,0.159-0.194,0.3-0.194h0.317c0.159,0,0.265,0.088,0.3,0.194l2.732,6.205h0.07l1.516-5.975
				c0.035-0.124,0.176-0.247,0.317-0.247h2.062c0.247,0,0.388,0.176,0.317,0.423L17.955,42.24c-0.035,0.141-0.176,0.247-0.317,0.247
				h-0.282c-0.124,0-0.247-0.088-0.3-0.194l-3.226-7.209h-0.053l-3.208,7.209c-0.053,0.106-0.176,0.194-0.3,0.194H9.986
				c-0.141,0-0.282-0.106-0.317-0.247L6.341,30.394z"/>
			<path fill="#7A7C7F" d="M23.173,30.306c0-0.177,0.159-0.335,0.335-0.335h2.115c0.176,0,0.335,0.158,0.335,0.335v11.669
				c0,0.177-0.159,0.335-0.335,0.335h-2.115c-0.176,0-0.335-0.158-0.335-0.335V30.306z"/>
			<path fill="#7A7C7F" d="M28.972,30.112c0-0.177,0.159-0.317,0.335-0.317h0.441l7.033,6.769h0.018v-6.258
				c0-0.177,0.141-0.335,0.335-0.335h2.115c0.176,0,0.335,0.158,0.335,0.335v11.863c0,0.177-0.159,0.317-0.335,0.317h-0.282
				c-0.053,0-0.194-0.053-0.229-0.088l-6.963-6.999h-0.018v6.575c0,0.177-0.141,0.335-0.335,0.335h-2.098
				c-0.176,0-0.334-0.158-0.334-0.335L28.972,30.112z"/>
			<path fill="#7A7C7F" d="M42.613,30.306c0-0.177,0.141-0.335,0.317-0.335h4.301c3.403,0,6.188,2.767,6.188,6.152
				c0,3.42-2.785,6.187-6.188,6.187h-4.301c-0.176,0-0.317-0.158-0.317-0.335V30.306z M47.056,39.701
				c1.992,0,3.438-1.568,3.438-3.578c0-1.992-1.45-3.561-3.438-3.561h-1.692v7.139H47.056z"/>
			<path fill="#7A7C7F" d="M60.998,29.794c3.525,0,6.346,2.838,6.346,6.363c0,3.526-2.817,6.328-6.346,6.328
				c-3.523,0-6.328-2.802-6.328-6.328C54.67,32.632,57.473,29.794,60.998,29.794z M60.998,39.666c1.938,0,3.525-1.586,3.525-3.508
				c0-1.939-1.588-3.543-3.525-3.543c-1.922,0-3.508,1.604-3.508,3.543C57.49,38.08,59.076,39.666,60.998,39.666z"/>
			<path fill="#7A7C7F" d="M68.293,30.394c-0.067-0.247,0.07-0.423,0.316-0.423h2.062c0.143,0,0.283,0.124,0.315,0.247l1.519,5.975
				h0.07l2.729-6.205c0.053-0.105,0.155-0.194,0.299-0.194h0.315c0.158,0,0.267,0.088,0.302,0.194l2.729,6.205h0.07l1.518-5.975
				c0.035-0.124,0.178-0.247,0.316-0.247h2.062c0.246,0,0.389,0.176,0.313,0.423l-3.33,11.846c-0.032,0.141-0.178,0.247-0.315,0.247
				h-0.281c-0.123,0-0.248-0.088-0.301-0.194l-3.228-7.209h-0.053l-3.209,7.209c-0.056,0.106-0.177,0.194-0.3,0.194h-0.279
				c-0.143,0-0.281-0.106-0.314-0.247L68.293,30.394z"/>
			<path fill="#7A7C7F" d="M84.473,40.635l0.828-1.463c0.143-0.229,0.477-0.194,0.6-0.106c0.07,0.036,1.34,0.97,2.504,0.97
				c0.705,0,1.215-0.441,1.215-1.058c0-0.74-0.615-1.304-1.812-1.78c-1.519-0.6-3.423-1.781-3.423-3.896
				c0-1.745,1.357-3.508,4.072-3.508c1.832,0,3.242,0.934,3.771,1.322c0.213,0.124,0.176,0.441,0.105,0.564l-0.898,1.357
				c-0.123,0.194-0.441,0.353-0.6,0.229c-0.158-0.088-1.445-1.057-2.521-1.057c-0.635,0-1.109,0.423-1.109,0.899
				c0,0.652,0.527,1.146,1.922,1.71c1.375,0.546,3.562,1.622,3.562,4.019c0,1.816-1.567,3.649-4.16,3.649
				c-2.291,0-3.562-0.952-3.967-1.357C84.385,40.953,84.332,40.882,84.473,40.635z"/>
		</g>
		<path fill="none" stroke="#F48022" stroke-width="6.1763" stroke-miterlimit="10" d="M27.489,56.105"/>
		<rect x="21.572" y="46.164" fill="#F48120" width="13.32" height="11.523"/>
		<rect x="36.216" y="46.164" fill="#F37920" width="13.323" height="11.523"/>
		<rect x="50.861" y="46.164" fill="#F26F21" width="13.32" height="11.523"/>
		<rect x="65.508" y="46.164" fill="#F16522" width="13.318" height="11.523"/>
		<rect x="80.152" y="46.164" fill="#F05A22" width="13.32" height="11.523"/>
		<g>
			<path fill="#F48120" d="M10.687,52.407H9.955v1.292h0.822c0.354,0,0.653-0.287,0.653-0.66
				C11.429,52.678,11.039,52.407,10.687,52.407z"/>
			<path fill="#F48120" d="M11.292,50.58c0-0.361-0.289-0.616-0.634-0.616H9.955v1.267h0.704
				C11.003,51.23,11.292,50.941,11.292,50.58z"/>
			<path fill="#F48120" d="M6.927,46.164v11.523h13.318V46.164H6.927z M10.957,54.994H8.714c-0.099,0-0.171-0.08-0.171-0.172v-5.991
				c0-0.087,0.073-0.168,0.171-0.168h2.108c1.068,0,1.944,0.731,1.944,1.682c0,0.696-0.625,1.2-1.049,1.428
				c0.479,0.197,1.213,0.643,1.213,1.477C12.932,54.262,12.035,54.994,10.957,54.994z M18.661,48.922l-2.026,3.016v2.887
				c0,0.092-0.081,0.172-0.171,0.172h-1.078c-0.099,0-0.172-0.08-0.172-0.172v-2.875l-1.999-3.025c-0.073-0.115,0-0.259,0.145-0.259
				h1.176c0.074,0,0.118,0.042,0.146,0.081l1.257,1.854l1.256-1.854c0.027-0.039,0.064-0.081,0.145-0.081h1.179
				C18.661,48.663,18.733,48.808,18.661,48.922z"/>
		</g>
	</g>
</g>
<g>
	<path fill="#F48120" d="M14.428,71.145c1.364-0.55,2.42-1.826,2.42-3.564c0-2.42-1.848-3.982-4.554-3.982H7.606
		c-0.154,0-0.286,0.132-0.286,0.286v14.83C7.321,78.868,7.453,79,7.606,79h4.885c2.86,0,4.841-1.716,4.841-4.181
		C17.332,72.707,15.99,71.562,14.428,71.145z M12.58,78.076H8.333v-6.232l0.003-0.171H8.333l0.022-1.157v-5.949h3.938
		c2.112,0,3.432,1.144,3.432,3.058c0,1.659-1.033,2.877-2.806,3.064c0.002,0.34,0.005,0.679,0.01,1.019
		c1.856,0.168,3.28,1.287,3.28,3.091C16.21,76.712,14.714,78.076,12.58,78.076z"/>
	<polygon fill="#F48120" points="8.333,71.673 8.336,71.673 8.355,70.516 	"/>
	<path fill="#F48120" d="M18.826,78.736l6.777-15.314c0.044-0.088,0.154-0.154,0.264-0.154h0.066c0.109,0,0.22,0.022,0.286,0.154
		l6.711,15.314C32.975,78.868,32.975,79,32.732,79H32.16c-0.154,0-0.264-0.11-0.308-0.198l-1.782-4.049h-8.405l-1.761,4.049
		C19.86,78.89,19.75,79,19.597,79H18.98C18.826,79,18.761,78.912,18.826,78.736z M29.696,73.896l-3.763-8.867H25.89l-3.829,8.867
		H29.696z"/>
	<path fill="#F48120" d="M35.392,63.664c0-0.177,0.154-0.286,0.33-0.286h0.374L46.657,77.13c0.022,0,0.022,0,0.022,0V63.884
		c0-0.154,0.132-0.286,0.286-0.286h0.439c0.154,0,0.286,0.132,0.286,0.286v15.05c0,0.198-0.176,0.286-0.352,0.286h-0.286
		c-0.022,0-0.198-0.065-10.649-13.884h-0.022v13.378c0,0.154-0.132,0.286-0.286,0.286h-0.418c-0.154,0-0.286-0.132-0.286-0.286
		V63.664z"/>
	<path fill="#F48120" d="M50.153,78.736l6.777-15.314c0.044-0.088,0.154-0.154,0.264-0.154h0.066c0.109,0,0.22,0.022,0.286,0.154
		l6.711,15.314C64.302,78.868,64.302,79,64.06,79h-0.572c-0.154,0-0.264-0.11-0.308-0.198l-1.782-4.049h-8.405l-1.761,4.049
		C51.188,78.89,51.078,79,50.924,79h-0.616C50.153,79,50.088,78.912,50.153,78.736z M61.023,73.896l-3.763-8.867h-0.044
		l-3.829,8.867H61.023z"/>
	<path fill="#F48120" d="M73.497,63.378c2.223,0,3.895,0.748,5.325,2.046c0.109,0.11,0.132,0.286,0.021,0.396
		c-0.109,0.132-0.242,0.264-0.352,0.374c-0.133,0.154-0.242,0.132-0.374,0c-1.232-1.145-2.839-1.849-4.643-1.849
		c-3.829,0-6.844,3.125-6.844,6.932c0,3.806,3.015,6.931,6.844,6.931c2.684,0,4.356-1.034,4.576-1.21v-4.137h-3.763
		c-0.242,0-0.286-0.088-0.286-0.286v-0.44c0-0.176,0.044-0.264,0.286-0.264H78.8c0.154,0,0.286,0.132,0.286,0.264v5.105
		c0,0.329-0.132,0.439-0.308,0.571c-0.396,0.265-2.398,1.408-5.281,1.408c-4.423,0-7.965-3.477-7.965-7.898
		C65.532,66.92,69.074,63.378,73.497,63.378z"/>
	<path fill="#F48120" d="M80.777,78.736l6.777-15.314c0.044-0.088,0.154-0.154,0.264-0.154h0.066c0.109,0,0.22,0.022,0.286,0.154
		l6.711,15.314C94.926,78.868,94.926,79,94.684,79h-0.572c-0.154,0-0.264-0.11-0.308-0.198l-1.782-4.049h-8.405l-1.761,4.049
		C81.812,78.89,81.701,79,81.548,79h-0.616C80.777,79,80.712,78.912,80.777,78.736z M91.647,73.896l-3.763-8.867h-0.044
		l-3.829,8.867H91.647z"/>
</g>
</svg>
